<svg width="75" height="75" xmlns="http://www.w3.org/2000/svg" xmlns:xlink="http://www.w3.org/1999/xlink" xml:space="preserve" overflow="hidden"><g transform="translate(-117 -553)"><g><g><g><g><path d="M137.707 610.033 174.911 572.831C174.914 572.828 174.919 572.828 174.921 572.831 174.923 572.832 174.924 572.834 174.924 572.836L174.924 579.438 176.465 579.438 176.465 570.188 167.237 570.188 167.237 571.729 173.814 571.729C173.818 571.729 173.821 571.733 173.821 571.737 173.821 571.739 173.821 571.741 173.819 571.742L136.617 608.943Z" fill="#FFFFFF" fill-rule="nonzero" fill-opacity="1"/><path d="M130.333 564.792 128.792 564.792 128.792 617.208 181.185 617.208 181.185 615.667 130.333 615.667 130.333 564.792Z" fill="#FFFFFF" fill-rule="nonzero" fill-opacity="1"/></g></g></g></g></g></svg>