<svg width="67" height="67" xmlns="http://www.w3.org/2000/svg" xmlns:xlink="http://www.w3.org/1999/xlink" xml:space="preserve" overflow="hidden"><g transform="translate(-325 -550)"><g><g><g><g><path d="M34.8698 11.1719C34.8841 9.88352 33.8559 8.8251 32.5677 8.80208L32.5 8.80208C31.1912 8.80208 30.1302 9.86307 30.1302 11.1719 30.1302 12.4807 31.1912 13.5417 32.5 13.5417 33.8088 13.5417 34.8698 12.4807 34.8698 11.1719ZM33.5156 11.1604C33.522 11.7213 33.0725 12.1811 32.5116 12.1874 31.9507 12.1938 31.4909 11.7443 31.4845 11.1834 31.4781 10.6225 31.9277 10.1627 32.4886 10.1563 32.4923 10.1562 32.4962 10.1562 32.5 10.1562L32.544 10.1562C33.0895 10.1655 33.5243 10.6149 33.5156 11.1604Z" fill="#11244D" fill-rule="nonzero" fill-opacity="1" transform="matrix(1 0 0 1.01538 326 551)"/><path d="M40.1165 27.4781 37.8869 25.2491 36.9295 26.2065 40.1165 29.3935 46.0119 23.4982 45.0545 22.5408 40.1165 27.4781Z" fill="#11244D" fill-rule="nonzero" fill-opacity="1" transform="matrix(1 0 0 1.01538 326 551)"/><path d="M18.9577 25.0507 33.1764 25.0507 33.1764 26.4049 18.9577 26.4049Z" fill="#11244D" fill-rule="nonzero" fill-opacity="1" transform="matrix(1 0 0 1.01538 326 551)"/><path d="M40.1165 34.928 37.8869 32.6984 36.9295 33.6558 40.1165 36.8428 46.0119 30.9474 45.0545 29.9901 40.1165 34.928Z" fill="#11244D" fill-rule="nonzero" fill-opacity="1" transform="matrix(1 0 0 1.01538 326 551)"/><path d="M18.9577 33.1771 33.1764 33.1771 33.1764 34.5312 18.9577 34.5312Z" fill="#11244D" fill-rule="nonzero" fill-opacity="1" transform="matrix(1 0 0 1.01538 326 551)"/><path d="M18.9577 41.3007 33.1764 41.3007 33.1764 42.6549 18.9577 42.6549Z" fill="#11244D" fill-rule="nonzero" fill-opacity="1" transform="matrix(1 0 0 1.01538 326 551)"/><path d="M18.9577 49.4257 33.1764 49.4257 33.1764 50.7799 18.9577 50.7799Z" fill="#11244D" fill-rule="nonzero" fill-opacity="1" transform="matrix(1 0 0 1.01538 326 551)"/><path d="M44.6875 39.2708 39.2708 39.2708 39.2708 44.6875 44.6875 44.6875ZM43.3333 43.3333 40.625 43.3333 40.625 40.625 43.3333 40.625Z" fill="#11244D" fill-rule="nonzero" fill-opacity="1" transform="matrix(1 0 0 1.01538 326 551)"/><path d="M44.6875 47.3958 39.2708 47.3958 39.2708 52.8125 44.6875 52.8125ZM43.3333 51.4583 40.625 51.4583 40.625 48.75 43.3333 48.75Z" fill="#11244D" fill-rule="nonzero" fill-opacity="1" transform="matrix(1 0 0 1.01538 326 551)"/><path d="M50.1042 10.142 39.9479 10.142 39.9479 8.78786C39.9457 6.91905 38.4313 5.40469 36.5625 5.40245L28.4375 5.40245C26.5687 5.40469 25.0543 6.91905 25.0521 8.78786L25.0521 10.142 14.8958 10.142C13.4001 10.142 12.1875 11.3546 12.1875 12.8504L12.1875 56.875C12.1875 58.3707 13.4001 59.5833 14.8958 59.5833L50.1042 59.5833C51.5999 59.5833 52.8125 58.3707 52.8125 56.875L52.8125 12.8504C52.8125 11.3546 51.5999 10.142 50.1042 10.142ZM23.6979 11.4962 26.4062 11.4962 26.4062 8.78786C26.4062 7.666 27.3156 6.75661 28.4375 6.75661L36.5625 6.75661C37.6844 6.75661 38.5938 7.666 38.5938 8.78786L38.5938 11.4962 41.3021 11.4962 41.3021 16.9271 23.6979 16.9271ZM51.4583 56.875C51.4583 57.6229 50.8521 58.2292 50.1042 58.2292L14.8958 58.2292C14.1479 58.2292 13.5417 57.6229 13.5417 56.875L13.5417 12.8504C13.5417 12.1025 14.1479 11.4962 14.8958 11.4962L22.3438 11.4962 22.3438 18.2812 42.6562 18.2812 42.6562 11.4962 50.1042 11.4962C50.8521 11.4962 51.4583 12.1025 51.4583 12.8504Z" fill="#11244D" fill-rule="nonzero" fill-opacity="1" transform="matrix(1 0 0 1.01538 326 551)"/></g></g></g></g></g></svg>