<svg width="92.359" height="104.46" version="1.1" viewBox="-5 -10 92.359 104.46" xmlns="http://www.w3.org/2000/svg">
	<path fill="#FFFFFF" d="m45.372 38.262h0.01172c0.62891 0 1.1406-0.51172 1.1484-1.1406 0.03125-2.2891 0.10156-4.1289 0.37891-5.7891 4.5508-0.55859 9.4883-1.7617 12.602-6.8281 2.9688-4.8516 3.6094-12.531 1.4805-17.879-0.12891-0.32031-0.39062-0.57031-0.71875-0.67188-0.32812-0.10938-0.69141-0.05859-0.98047 0.12891-2.0703 1.3281-4 2.2188-5.8711 3.0703-2.8203 1.2891-5.3086 2.4414-7.25 4.7383-0.10156-0.07813-0.19141-0.16016-0.28906-0.23828-3.9492-3.1289-10.648-4.5-15.578-3.1992-0.32812 0.08984-0.60938 0.32031-0.75 0.62891-0.14062 0.30859-0.14062 0.67188 0.01172 0.98047 0.94141 1.9414 1.5117 3.7109 2.0586 5.4297 1 3.1289 1.8594 5.8281 4.5898 7.9883 2.2812 1.8086 4.8281 2.7188 7.7695 2.8086 0.23047 0.73047 0.48047 1.4219 0.73047 2.0898-0.37109 1.9414-0.46875 4.0586-0.5 6.7305 0.0039 0.62109 0.51562 1.1406 1.1562 1.1523zm-7.7227-14.59c-2.1797-1.7188-2.9102-4-3.8203-6.8789-0.42969-1.3398-0.89844-2.8086-1.5703-4.3906 4.0703-0.57812 9.1797 0.64844 12.211 3.0508 0.14063 0.10938 0.26172 0.23828 0.39063 0.35156-0.67188 1.1797-1.1289 2.3594-1.4102 3.5195-1.2188-1.2617-2.7188-2.4492-4.5195-3.5508-0.53906-0.32812-1.25-0.16016-1.5781 0.37891s-0.16016 1.25 0.37891 1.5781c2.2812 1.3906 4.0391 2.9219 5.2305 4.5508 0.03125 0.03906 0.07031 0.07031 0.10156 0.10938-0.01953 1.2188 0.12109 2.3984 0.33984 3.5391-2.1523-0.16797-4.0508-0.91797-5.7539-2.2578zm9.4219-7.1211c1.6797-2.7305 4.1602-3.8711 7.3086-5.3086 1.5-0.67969 3.1602-1.4414 4.9102-2.4609 1.2891 4.5781 0.60156 10.68-1.75 14.52-2.2305 3.6484-5.4297 4.9492-10.051 5.6289 0.80078-2.3906 2.2695-4.6914 5.0117-7.8906l0.57031-0.66016c1.8086-2.1094 3.0117-3.5117 4.9414-6.4414 0.35156-0.53125 0.19922-1.25-0.32812-1.6016-0.53125-0.35156-1.25-0.19922-1.6016 0.32812-1.8516 2.8008-3.0117 4.1602-4.7617 6.1992l-0.57031 0.67188c-2.3711 2.7695-3.8711 4.9492-4.8281 7.0508-1.0234-3.957-0.65234-7.0859 1.1484-10.035zm34.301 28.949c-2.0195-2.5703-6.3281-4.0703-12.328-0.60938l-15.238 8.8008c-1.2305-2.5391-4.2383-4.7383-9.7812-4.7383h-12.391c-13.801-3.6289-17.719 5.25-19.602 9.5195-0.28125 0.64062-0.53125 1.1914-0.73828 1.5586l-2.6211 4.5391c-1.7305-0.80859-3.8086-0.19141-4.7812 1.4883l-3.3906 5.8594c-0.5 0.85938-0.62891 1.8594-0.37109 2.8203 0.26172 0.96094 0.87109 1.7617 1.7305 2.2617l20.719 11.961c0.57812 0.33984 1.2188 0.5 1.8516 0.5 1.2891 0 2.5391-0.67188 3.2188-1.8594l3.3906-5.8594c0.5-0.85938 0.62891-1.8594 0.37109-2.8203-0.23047-0.85938-0.75-1.5703-1.4688-2.0703l2.6211-4.5391c1.2812-2.2109 1.9805-2.3203 4.0312-2.3203h8.3789c3.0195 0 5.6484-0.69922 8.2695-2.2188l26.82-15.488c1.1484-0.67188 1.9609-1.7891 2.2109-3.1016 0.25781-1.293-0.07422-2.6445-0.90234-3.6836zm-52.32 35.09-3.3906 5.8594c-0.39062 0.67188-1.2617 0.91016-1.9297 0.51953l-20.723-11.969c-0.32812-0.19141-0.55859-0.48828-0.66016-0.85938-0.10156-0.37109-0.05078-0.75 0.14062-1.0703l3.3906-5.8594c0.26172-0.44922 0.73828-0.71094 1.2305-0.71094 0.23828 0 0.48047 0.05859 0.69922 0.19141l20.719 11.961c0.32812 0.19141 0.55859 0.48828 0.66016 0.85938 0.10156 0.36719 0.05078 0.75-0.13672 1.0781zm50.957-31.828c-0.12891 0.64844-0.51953 1.1992-1.1016 1.5312l-26.816 15.488c-2.2812 1.3203-4.4805 1.9102-7.1211 1.9102h-8.3789c-2.5 0-4.1484 0.23047-6.0195 3.4688l-2.6094 4.5195-17.281-9.9883 2.6094-4.5195c0.26953-0.46875 0.53906-1.0781 0.85156-1.7812 1.8789-4.2695 5.0312-11.41 17.051-8.1914 0.10156 0.03125 0.19922 0.03906 0.30078 0.03906h12.539c5.4609 0 7.7617 2.4414 8.0898 4.7188 0.10156 0.67188-0.08984 1.3086-0.51953 1.8086-0.42969 0.5-1.0508 0.78125-1.7188 0.78125l-13.531 0.0039c-0.64062 0-1.1484 0.51953-1.1484 1.1484 0 0.64062 0.51953 1.1484 1.1484 1.1484h13.52c1.3281 0 2.5898-0.57031 3.4609-1.5781 0.78906-0.91016 1.1797-2.1016 1.1016-3.3086l15.762-9.1016c4.7305-2.7305 7.9414-1.7695 9.3711 0.03906 0.41406 0.55078 0.57422 1.2031 0.44141 1.8633zm-37.758-52.133c-0.10156-0.62891 0.32813-1.2188 0.96094-1.3203 1.3203-0.21094 2.6719-0.30859 4.0195-0.30859 14.172 0 25.711 11.531 25.711 25.711 0 6.3008-2.3516 12.41-6.5 17.09l2.1406-0.01953h0.01172c0.62891 0 1.1484 0.51172 1.1484 1.1406 0.01172 0.64062-0.51172 1.1602-1.1406 1.1602l-4.8984 0.03906h-0.01172c-0.30078 0-0.58984-0.12109-0.80859-0.32812-0.21875-0.21094-0.33984-0.51172-0.33984-0.80859l-0.03906-4.8984c-0.01172-0.64062 0.51172-1.1602 1.1406-1.1602h0.01172c0.62891 0 1.1484 0.51172 1.1484 1.1406l0.01953 2.1016c3.7695-4.2695 5.8203-9.6797 5.8203-15.449 0-12.898-10.5-23.398-23.398-23.398-1.2305 0-2.4609 0.10156-3.6602 0.28125-0.64453 0.089844-1.2344-0.33984-1.3359-0.97266zm-20.719 24.082c0-8.6797 4.3906-16.738 11.578-21.48l-2.0703-0.53125c-0.62109-0.16016-0.98828-0.78906-0.82812-1.3984 0.16016-0.62109 0.78906-0.98828 1.3984-0.82812l4.75 1.2305c0.30078 0.078125 0.55078 0.26953 0.69922 0.53125s0.19922 0.57812 0.12109 0.87109l-1.2305 4.75c-0.16016 0.62109-0.78906 0.98828-1.3984 0.82812-0.62109-0.16016-0.98828-0.78906-0.82812-1.3984l0.52734-2.0547c-6.4688 4.3203-10.422 11.621-10.422 19.48 0 12.898 10.5 23.398 23.398 23.398 3.3086 0 6.5195-0.67969 9.5195-2.0195 0.57812-0.26172 1.2617 0 1.5195 0.57812 0.26172 0.57812 0 1.2617-0.57813 1.5195-3.3008 1.4688-6.8203 2.2188-10.461 2.2188-14.168 0.01563-25.695-11.527-25.695-25.695z"/>
</svg>
