<?xml version="1.0" encoding="UTF-8"?>
<svg xmlns="http://www.w3.org/2000/svg" id="Laag_2" viewBox="0 0 340.27 132.25">
  <defs>
    <style>.cls-1{fill:#009554;stroke-width:0px;}</style>
  </defs>
  <g id="Laag_1-2">
    <path class="cls-1" d="m226.28,105.27c-.64,1.27-1.8,2.2-3.19,2.43-1.33.23-2.78.23-4.05-.06-.46-.12-.93-.23-1.33-.41-2.03-.7-4-2.2-5.21-3.94-.35-.52-.64-1.04-.93-1.56-1.22-2.43-1.97-5.27-2.14-8.05-.12-1.56-.12-3.24.12-4.75.7-4.63,3.01-10.25,7.47-11.18l.06,23.05c2.09-.93,5.1-3.01,7.88-1.39,1.8,1.16,1.8,3.94,1.33,5.85m23.8-16.33c-8.4-14.71-29.13-17.26-43.84-10.71-10.95,5.39-15.87,17.49-14.71,29.6,1.16,10.02,8.63,19.11,18.19,22.12,12.57,3.71,28.67,1.85,36.84-9.32,7.01-8.4,8.17-21.89,3.53-31.68"></path>
    <path class="cls-1" d="m97.88,92.99c-1.62-4.92-1.16-10.48,2.78-13.73,1.04-.7,1.68-.98,3.24-.93v22.36c-2.95-.98-4.87-4.92-6.02-7.7m24.44-14.13c-2.09-1.22-4.4-1.97-6.78-2.37-6.6-1.27-13.84-1.16-20.27.7-2.37.7-4.63,1.68-6.72,3.07-1.97,1.39-4.11,3.13-5.62,5.04-7.47,8.4-7.01,20.97-2.55,30.75,8.17,14.94,27.05,15.17,41.7,15.87l2.09.06v-25.19c0,.06-4.4-.06-4.81-.06-3.48-.12-7.36-.41-10.66-1.56-1.1-.41-2.14-1.04-2.26-2.32,6.54-1.39,14.71-2.09,18.19-8.17.64-1.16,1.16-2.43,1.51-3.71.29-1.1.35-2.37.35-3.48-.06-3.24-1.33-6.95-4.17-8.63"></path>
    <path class="cls-1" d="m189.51,131.97s-14.88,1.62-19.63-2.9c0,0-4.92-2.9-5.33-11.64v-36.66c-1.16-.46-1.45-1.27-2.84-.58v20.85l-.06.06c-10.95,1.97-16.51-3.59-16.51-3.59-8.34-9.5.12-15.64.12-15.64,1.22-1.1,2.14-2.26,2.14-2.26h-.06c-3.94-.93-8.86.17-10.95,2.55-1.85,1.85-2.09,4.63-1.85,7.01,2.78,9.56,14.42,9.32,17.72,18.19v24.5h-23.22l-.06-55.02c13.73-.06,29.77-.06,44.31-.06,7.76-.23,12.28-11.47,16.45-18.48v19.4h8.28v1.91h-8.4l-.12,52.36h0Z"></path>
    <path class="cls-1" d="m284.49,103.07c-.23-1.39-.93-2.84-2.32-3.07-2.09-.46-2.9,1.8-3.36,3.13l.06,28.67-23.92.06v-54.15l23.98-.06.06,19.58v-.06c1.27-3.71,2.66-7.36,3.94-11,1.33-3.76,3.65-7.76,7.3-9.73,2.66-1.45,5.73-1.39,8.63-.98,3.36.46,6.02,1.68,7.7,4.63.52.93,1.04,2.03,1.33,3.07,0,0,1.85,6.6,1.62,12.22,0,0,.7-1.91,3.13-9.15,0,0,3.07-9.9,12.16-11.29,0,0,4-1.04,9.21,2.32,0,0,5.44,2.9,5.91,12.22,0,0,.41,4.58.29,7.59l.06-.17v34.87h-24.5v-29.02c-.23-1.39-1.33-2.55-2.72-2.78-2.09-.46-3.48,1.62-3.71,3.01v28.84h-24.96l.12-28.73Z"></path>
    <path class="cls-1" d="m45.64,92.06c-.58-2.2-2.61-11.29-3.13-13.61-.52-2.43-1.1-4.92-1.62-7.36-.58-2.61-1.16-5.27-1.68-7.88-.58-2.84-1.22-5.68-1.8-8.46-.64-3.07-1.27-6.14-1.91-9.15-.7-3.3-1.39-6.6-2.03-9.9-.7-3.53-1.45-7.12-2.14-10.66-.75-3.76-1.45-7.53-2.2-11.29-.75-4-1.51-7.93-2.26-11.82H0l.17.41,19.11,95.27c2.37,10.54,4.4,22.94,14.77,28.67,10.54,6.95,27.68,7.18,38.46.98V.96l.12.12c-.52-.7-3.24-.87-4-.98-2.61-.23-5.39,0-7.93.64-4.81,1.16-9.44,3.48-11.53,8.28-1.8,4.11-.87,10.95,2.55,14.13,0,0,2.26,3.24,8.57,4.17,0,0,6.95.58,9.44-.58l.06.06-.12,59.54s.64,18.19-11.12,18.19c0,0-9.32.81-12.92-12.45"></path>
  </g>
</svg>
